HIERARCHY
ROOT Hips
{
	OFFSET 0.000000 0.000000 0.000000 
	CHANNELS 6 Xposition Yposition Zposition Zrotation Yrotation Xrotation
	JOINT LeftUpLeg
	{
		OFFSET 1.363060 -1.794630 0.839290 
		CHANNELS 3 Zrotation Yrotation Xrotation
		JOINT LeftLeg
		{
			OFFSET 2.448110 -6.726130 0.000000 
			CHANNELS 3 Zrotation Yrotation Xrotation
			JOINT LeftFoot
			{
				OFFSET 2.562200 -7.039590 0.000000 
				CHANNELS 3 Zrotation Yrotation Xrotation
				JOINT LeftToeBase
				{
					OFFSET 0.157640 -0.433110 2.322550 
					CHANNELS 3 Zrotation Yrotation Xrotation
					End Site
					{
						OFFSET 0.000000 0.000000 0.000000 
					}
				}
			}
		}
	}
	JOINT RightUpLeg
	{
		OFFSET -1.305520 -1.794630 0.839290 
		CHANNELS 3 Zrotation Yrotation Xrotation
		JOINT RightLeg
		{
			OFFSET -2.542530 -6.985550 0.000000 
			CHANNELS 3 Zrotation Yrotation Xrotation
			JOINT RightFoot
			{
				OFFSET -2.568260 -7.056230 0.000000 
				CHANNELS 3 Zrotation Yrotation Xrotation
				JOINT RightToeBase
				{
					OFFSET -0.164730 -0.452590 2.363150 
					CHANNELS 3 Zrotation Yrotation Xrotation
					End Site
					{
						OFFSET 0.000000 0.000000 0.000000 
					}
				}
			}
		}
	}
	JOINT Spine
	{
		OFFSET 0.028270 2.035590 -0.193380 
		CHANNELS 3 Zrotation Yrotation Xrotation
		JOINT Spine1
		{
			OFFSET 0.056720 2.048850 -0.042750 
			CHANNELS 3 Zrotation Yrotation Xrotation
			JOINT Neck1
			{
				OFFSET -0.054170 1.746240 0.172020 
				CHANNELS 3 Zrotation Yrotation Xrotation
				JOINT Head
				{
					OFFSET 0.104070 1.761360 -0.123970 
					CHANNELS 3 Zrotation Yrotation Xrotation
					End Site
					{
						OFFSET 0.000000 0.000000 0.000000 
					}
				}
			}
			JOINT LeftArm
			{
				OFFSET 3.362410 1.200890 -0.311210 
				CHANNELS 3 Zrotation Yrotation Xrotation
				JOINT LeftForeArm
				{
					OFFSET 4.983000 -0.000000 -0.000000 
					CHANNELS 3 Zrotation Yrotation Xrotation
					JOINT LeftHand
					{
						OFFSET 3.483560 -0.000000 -0.000000 
						CHANNELS 3 Zrotation Yrotation Xrotation
						JOINT LeftHandIndex1
						{
							OFFSET 0.715260 -0.000000 -0.000000 
							CHANNELS 3 Zrotation Yrotation Xrotation
							End Site
							{
								OFFSET 0.000000 0.000000 0.000000 
							}
						}
					}
				}
			}
			JOINT RightArm
			{
				OFFSET -3.136600 1.374050 -0.404650 
				CHANNELS 3 Zrotation Yrotation Xrotation
				JOINT RightForeArm
				{
					OFFSET -5.241900 -0.000000 -0.000000 
					CHANNELS 3 Zrotation Yrotation Xrotation
					JOINT RightHand
					{
						OFFSET -3.444170 -0.000000 -0.000000 
						CHANNELS 3 Zrotation Yrotation Xrotation
						JOINT RightHandIndex1
						{
							OFFSET -0.622530 -0.000000 -0.000000 
							CHANNELS 3 Zrotation Yrotation Xrotation
							End Site
							{
								OFFSET 0.000000 0.000000 0.000000 
							}
						}
					}
				}
			}
		}
	}
}
MOTION
Frames: 18
Frame Time: 0.041667
-12.817825 18.714404 -1.915980 -172.587427 83.361404 -156.968519 -8.632159 -3.608582 -15.643995 -2.182795 6.928589 21.373772 4.872674 -7.241855 16.033045 0.286400 -3.441700 -9.511100 10.618516 7.478174 -28.735418 2.515759 -7.418043 17.504081 2.674783 -10.609515 2.179198 -0.273700 3.365200 -9.297200 1.270268 -0.247789 4.679565 -0.556070 0.380607 -5.765834 2.354336 -1.088727 1.436919 -1.974600 -0.678600 -0.099000 -71.998485 11.095925 32.880099 46.930265 -49.184625 -27.062583 0.681581 -1.635011 -0.334374 -7.125000 0.000000 0.000000 77.618054 -23.021838 32.407501 -24.874022 32.990063 -7.804464 0.799767 0.515199 0.250754 7.125000 0.000000 0.000000 
-12.583225 18.723841 -1.897824 -178.269089 82.610582 -162.659510 -8.813593 -3.402411 -15.577595 -2.173044 7.066037 21.963654 5.248830 -8.538661 17.244665 0.318300 -3.626600 -10.028500 9.907841 7.897852 -28.425766 2.544765 -7.189566 16.807901 3.164733 -11.917926 2.576242 -0.177900 2.717100 -7.492000 1.458759 -0.306436 4.664150 -0.404890 0.335262 -5.757198 1.960244 -1.504309 1.548525 -2.104800 -0.879200 -0.086700 -72.261199 11.425282 33.579643 46.945911 -49.232157 -27.072412 0.691548 -1.645427 -0.150078 -7.125000 0.000000 0.000000 77.666630 -23.513152 32.267524 -24.647863 32.799319 -7.699431 0.780724 0.575301 0.696306 7.125000 0.000000 0.000000 
-12.348831 18.723944 -1.878539 176.901597 81.820786 -167.564595 -9.032543 -3.193790 -15.590378 -2.131301 7.297465 22.802913 5.592618 -9.890212 18.533198 0.352500 -3.814500 -10.555400 9.207447 8.262009 -28.034566 2.522169 -7.050515 16.390722 3.614899 -13.128144 3.206743 -0.094700 1.984900 -5.464000 1.632734 -0.356926 4.663514 -0.247247 0.304055 -5.761747 1.565527 -1.914292 1.694518 -2.236500 -1.075600 -0.057600 -72.561931 11.809636 34.169213 46.758903 -49.196389 -26.913718 0.699814 -1.654807 0.083555 -7.125000 0.000000 0.000000 77.725717 -24.009728 32.162420 -24.476414 32.658776 -7.624665 0.762064 0.631826 1.058200 7.125000 0.000000 0.000000 
-12.114129 18.713275 -1.858228 172.827217 81.001775 -171.778457 -9.280238 -2.998917 -15.665169 -2.052695 7.616792 23.883115 5.878546 -11.230045 19.901632 0.388900 -4.004700 -11.089800 8.580402 8.467961 -27.610688 2.459152 -6.998871 16.244786 3.957397 -14.083096 4.102928 -0.034600 1.199900 -3.299000 1.791138 -0.396431 4.680620 -0.087097 0.286333 -5.767838 1.178229 -2.314899 1.877214 -2.366900 -1.266200 -0.010200 -72.880485 12.261025 34.652520 46.405307 -49.091286 -26.618698 0.706572 -1.663428 0.299030 -7.125000 0.000000 0.000000 77.794117 -24.514397 32.109959 -24.357120 32.566176 -7.576977 0.743597 0.683680 1.350221 7.125000 0.000000 0.000000 
-11.879325 18.693683 -1.836481 169.477427 80.162308 -175.328193 -9.535160 -2.835428 -15.787023 -1.930864 8.015411 25.184270 6.089064 -12.486278 21.329384 0.427300 -4.195300 -11.626700 8.074658 8.475671 -27.176594 2.358580 -7.034782 16.363892 4.232289 -14.875863 5.086982 -0.006900 0.536600 -1.474600 1.931382 -0.415818 4.710821 0.058929 0.284727 -5.780574 0.809869 -2.703879 2.084133 -2.493900 -1.450700 0.049800 -73.187758 12.780934 35.047237 45.905067 -48.922853 -26.205338 0.711944 -1.671548 0.463468 -7.125000 0.000000 0.000000 77.890472 -25.034499 32.106272 -24.291695 32.522802 -7.555715 0.725546 0.730323 1.559821 7.125000 0.000000 0.000000 
-11.644828 18.667833 -1.813298 166.774715 79.323907 -178.291466 -9.783796 -2.715493 -15.937928 -1.757578 8.484252 26.683732 6.216222 -13.590264 22.758124 0.465300 -4.375300 -12.135100 7.705430 8.308415 -26.741942 2.231841 -7.149508 16.739474 4.368146 -15.314110 6.066066 0.000000 -0.035400 0.097300 2.056748 -0.409807 4.755075 0.185199 0.299935 -5.797111 0.462123 -3.074113 2.279466 -2.615200 -1.627000 0.107300 -73.492483 13.360626 35.334890 45.255450 -48.685264 -25.671514 0.715666 -1.678709 0.592592 -7.125000 0.000000 0.000000 78.011303 -25.562052 32.157003 -24.273339 32.521400 -7.556102 0.708041 0.771640 1.685275 7.125000 0.000000 0.000000 
-11.411459 18.637264 -1.788679 164.712255 78.501979 179.328479 -10.001619 -2.652843 -16.114315 -1.522234 9.015704 28.362815 6.264191 -14.493322 24.106339 0.503200 -4.547500 -12.622200 7.494976 7.986755 -26.329956 2.081523 -7.337172 17.352740 4.415309 -15.495181 6.840900 -0.004900 -0.453200 1.245400 2.177494 -0.371315 4.811505 0.289062 0.333792 -5.816215 0.137179 -3.421490 2.407952 -2.727200 -1.795000 0.139200 -73.803363 13.998334 35.510611 44.475807 -48.381989 -25.033546 0.717418 -1.684817 0.710885 -7.125000 0.000000 0.000000 78.150577 -26.086869 32.258144 -24.293704 32.554136 -7.574253 0.690835 0.809297 1.722664 7.125000 0.000000 0.000000 
-11.180450 18.604438 -1.763034 163.424399 77.724286 177.673847 -10.139455 -2.646021 -16.327572 -1.210153 9.604369 30.208593 6.249278 -15.179111 25.245381 0.540300 -4.709600 -13.082200 7.461177 7.601675 -25.928730 1.916798 -7.582010 18.163750 4.405630 -15.462680 7.206289 -0.012900 -0.733000 2.014300 2.299040 -0.283000 4.874068 0.332783 0.393346 -5.842039 -0.153973 -3.749587 2.406220 -2.825400 -1.958900 0.118300 -74.097730 14.693301 35.594977 43.585880 -48.016676 -24.308267 0.716585 -1.690100 0.851520 -7.125000 0.000000 0.000000 78.336851 -26.591778 32.377581 -24.330437 32.598164 -7.596458 0.674255 0.841046 1.693401 7.125000 0.000000 0.000000 
-10.953955 18.570998 -1.736261 163.047939 77.000051 176.911441 -10.140937 -2.695914 -16.621347 -0.812426 10.242299 32.207988 6.198672 -15.706623 26.065023 0.572300 -4.844600 -13.466000 7.630159 7.204539 -25.554383 1.746919 -7.865738 19.115276 4.378746 -15.304745 7.070741 -0.018900 -0.886900 2.437600 2.436429 -0.135396 4.932436 0.292880 0.481190 -5.875602 -0.409291 -4.063158 2.244144 -2.910000 -2.121600 0.032600 -74.372293 15.428847 35.599057 42.584936 -47.582638 -23.494806 0.712558 -1.694282 1.054870 -7.125000 0.000000 0.000000 78.583787 -27.047543 32.473535 -24.363103 32.633936 -7.612107 0.659043 0.866828 1.613797 7.125000 0.000000 0.000000 
-10.731870 18.537454 -1.709693 163.601696 76.367172 177.071205 -9.974732 -2.771804 -17.018257 -0.322431 10.918820 34.339816 6.129985 -16.112468 26.466931 0.593300 -4.931200 -13.712400 8.014839 6.849016 -25.200861 1.582637 -8.168964 20.149252 4.340214 -15.050334 6.442649 -0.021600 -0.949400 2.609700 2.600560 0.082354 4.987370 0.155409 0.601329 -5.911145 -0.640836 -4.363566 1.941230 -2.988000 -2.283000 -0.107900 -74.637621 16.193206 35.523077 41.476123 -47.074057 -22.595479 0.704070 -1.697186 1.357019 -7.125000 0.000000 0.000000 78.879949 -27.416561 32.533613 -24.359727 32.631311 -7.604242 0.644746 0.886259 1.524811 7.125000 0.000000 0.000000 
-10.514504 18.503603 -1.684561 164.921162 75.843446 178.018764 -9.653865 -2.854776 -17.544562 0.255287 11.618504 36.563390 6.054925 -16.423575 26.400390 0.598900 -4.954100 -13.777700 8.589999 6.559384 -24.875122 1.430481 -8.472413 21.203734 4.292499 -14.740766 5.417998 -0.021900 -0.954400 2.623300 2.789579 0.365111 5.033565 -0.071336 0.751313 -5.942810 -0.838805 -4.646673 1.544354 -3.057800 -2.439100 -0.283200 -74.893438 16.985379 35.361788 40.269287 -46.489237 -21.620962 0.690424 -1.698496 1.761893 -7.125000 0.000000 0.000000 79.201645 -27.660197 32.558975 -24.289219 32.561269 -7.556499 0.632106 0.898558 1.487511 7.125000 0.000000 0.000000 
-10.300934 18.468931 -1.661993 166.758512 75.449659 179.534767 -9.225865 -2.913848 -18.216748 0.908027 12.323518 38.826228 5.978323 -16.634994 25.873484 0.586900 -4.905100 -13.638200 9.301864 6.366368 -24.576955 1.293533 -8.763031 22.236359 4.220992 -14.373124 4.102617 -0.019900 -0.911700 2.505900 2.988647 0.712026 5.069001 -0.376988 0.931161 -5.959402 -1.001055 -4.914883 1.128657 -3.122300 -2.588800 -0.462200 -75.123131 17.806691 35.132263 38.982258 -45.831869 -20.589785 0.671475 -1.698224 2.265958 -7.125000 0.000000 0.000000 79.538515 -27.758519 32.524055 -24.145086 32.419201 -7.468569 0.621962 0.905144 1.533509 7.125000 0.000000 0.000000 
-10.090030 18.434259 -1.642709 168.820329 75.191702 -178.643271 -8.758313 -2.926771 -19.034933 1.605973 13.007730 41.041383 5.900663 -16.715026 24.969872 0.559000 -4.788900 -13.307400 10.070581 6.292519 -24.298738 1.172831 -9.025845 23.194168 4.126277 -13.983700 2.692397 -0.017600 -0.856600 2.354300 3.186575 1.104862 5.092102 -0.717230 1.133030 -5.954009 -1.140110 -5.153321 0.767764 -3.187900 -2.722500 -0.612300 -75.350824 18.644791 34.811910 37.608773 -45.091274 -19.500609 0.647188 -1.695419 2.870642 -7.125000 0.000000 0.000000 79.841134 -27.697006 32.441515 -23.925942 32.203843 -7.341740 0.614858 0.905793 1.703021 7.125000 0.000000 0.000000 
-9.880152 18.396202 -1.627322 170.755633 75.079600 -176.848913 -8.340984 -2.874531 -19.980996 2.314643 13.648969 43.128546 5.818446 -16.632786 23.783416 0.521600 -4.628600 -12.852200 10.809947 6.325261 -24.047258 1.069146 -9.254121 24.053385 3.963013 -13.470023 1.393014 -0.017600 -0.855600 2.351600 3.365318 1.525365 5.104346 -1.041347 1.348642 -5.917236 -1.262814 -5.350897 0.516846 -3.256700 -2.832500 -0.712000 -75.576488 19.507158 34.408236 36.165300 -44.270994 -18.372023 0.618132 -1.689707 3.560048 -7.125000 0.000000 0.000000 80.074902 -27.486868 32.315076 -23.645511 31.927289 -7.184710 0.612590 0.898852 2.042155 7.125000 0.000000 0.000000 
-9.669454 18.361428 -1.615320 172.350305 75.113701 -175.286483 -8.034779 -2.744720 -21.023284 2.987929 14.221358 44.986609 5.728678 -16.369524 22.436513 0.482700 -4.455300 -12.361400 11.463945 6.441999 -23.806692 0.975245 -9.446597 24.798429 3.816969 -13.037902 0.156715 -0.015300 -0.799000 2.195800 3.507167 1.958198 5.103172 -1.326348 1.570723 -5.857864 -1.363906 -5.502166 0.401773 -3.325600 -2.915100 -0.751700 -75.794318 20.379008 33.936682 34.656916 -43.367053 -17.213107 0.585678 -1.680782 4.334683 -7.125000 0.000000 0.000000 80.242345 -27.152142 32.121185 -23.329408 31.612027 -7.010941 0.616853 0.880873 2.582955 7.125000 0.000000 0.000000 
-9.456909 18.331680 -1.606190 173.408977 75.281528 -174.170941 -7.893002 -2.549349 -22.110248 3.587373 14.709729 46.546949 5.625429 -15.920736 21.024537 0.444500 -4.277900 -11.860000 11.970957 6.638786 -23.540657 0.893212 -9.600236 25.428572 3.649492 -12.579579 -0.971295 -0.012800 -0.731100 2.009100 3.598610 2.384642 5.092358 -1.552362 1.790373 -5.788418 -1.452792 -5.602467 0.411606 -3.395500 -2.967900 -0.739600 -76.003584 21.248332 33.406301 33.093535 -42.378377 -16.036861 0.551544 -1.668644 5.193433 -7.125000 0.000000 0.000000 80.351493 -26.717490 31.834481 -23.004753 31.282280 -6.834009 0.629745 0.848152 3.321249 7.125000 0.000000 0.000000 
-9.242415 18.307778 -1.598907 173.830040 75.551704 -173.637725 -7.935643 -2.319277 -23.190116 4.081366 15.105014 47.761690 5.502092 -15.297625 19.646360 0.411600 -4.118300 -11.409600 12.301735 6.886505 -23.223983 0.823003 -9.711348 25.929101 3.492396 -12.167721 -1.942138 -0.009000 -0.613800 1.686700 3.648386 2.777013 5.078541 -1.684143 1.994796 -5.724711 -1.526481 -5.641057 0.498413 -3.456500 -2.986300 -0.697100 -76.246770 22.106134 32.793292 31.493007 -41.309429 -14.860924 0.517794 -1.653300 6.122444 -7.125000 0.000000 0.000000 80.376188 -26.207255 31.469582 -22.701517 30.965318 -6.668882 0.651510 0.797430 4.209573 7.125000 0.000000 0.000000 
-9.026588 18.289622 -1.592957 173.741436 75.894231 -173.604388 -8.124049 -2.083470 -24.219295 4.456216 15.407162 48.615316 5.354225 -14.512400 18.354711 0.386600 -3.993000 -11.056800 12.486329 7.183697 -22.822169 0.767516 -9.779788 26.305202 3.344969 -11.792935 -2.780752 -0.005500 -0.480000 1.318900 3.655683 3.134886 5.062007 -1.759585 2.183577 -5.689159 -1.583028 -5.627879 0.614613 -3.505600 -2.976700 -0.647500 -76.489439 22.946316 32.132891 29.871510 -40.166439 -13.701620 0.486495 -1.635025 7.080385 -7.125000 0.000000 0.000000 80.367190 -25.649466 31.004539 -22.439244 30.680068 -6.524031 0.681931 0.724681 5.181558 7.125000 0.000000 0.000000 
